<?xml version="1.0" standalone="no"?>
<!DOCTYPE svg PUBLIC "-//W3C//DTD SVG 20010904//EN"
 "http://www.w3.org/TR/2001/REC-SVG-20010904/DTD/svg10.dtd">
<svg version="1.0" xmlns="http://www.w3.org/2000/svg"
 width="512.000000pt" height="512.000000pt" viewBox="0 0 512.000000 512.000000"
 preserveAspectRatio="xMidYMid meet">

<g transform="translate(0.000000,512.000000) scale(0.100000,-0.100000)"
fill="#000000" stroke="none">
<path d="M2283 4239 c-35 -10 -73 -52 -73 -79 0 -16 -13 -18 -102 -22 -150 -6
-149 -4 -234 -245 l-18 -53 -83 0 -82 0 6 65 c6 63 5 65 -30 100 l-35 35 -156
0 c-143 0 -158 -2 -176 -20 -27 -27 -26 -81 1 -106 17 -15 42 -20 129 -24
l107 -5 -72 -201 c-40 -111 -76 -207 -79 -213 -8 -13 -394 -16 -412 -3 -10 6
-155 396 -154 415 0 4 45 7 101 7 99 0 101 1 131 30 24 25 29 36 24 58 -14 56
-33 62 -203 62 l-155 0 -34 -34 c-26 -26 -34 -43 -34 -69 0 -41 170 -519 198
-556 10 -14 34 -35 53 -46 31 -18 56 -20 250 -23 249 -4 286 2 339 56 29 30
46 65 86 179 l49 143 88 0 c48 0 87 -2 87 -4 0 -6 -200 -569 -203 -572 -1 -1
-33 4 -72 12 -84 16 -245 18 -333 4 -35 -6 -97 -21 -138 -34 l-74 -24 0 30 c0
82 -56 118 -182 118 -83 0 -85 1 -97 28 -7 15 -62 142 -122 282 -79 184 -118
263 -140 283 l-29 27 -168 0 c-183 0 -198 -4 -227 -60 -13 -25 -15 -189 -15
-1270 l0 -1241 25 -24 24 -25 1364 0 1364 0 27 21 c34 27 35 71 1 104 -24 25
-26 25 -205 25 l-180 0 0 95 c0 106 -12 145 -56 187 -38 35 -74 48 -134 48
l-49 0 39 84 c115 244 116 538 4 792 -79 179 -239 351 -417 449 -37 20 -67 38
-67 38 0 6 72 203 75 206 11 10 186 -147 290 -261 92 -100 159 -196 325 -472
l131 -219 -17 -36 c-25 -51 -23 -145 4 -197 23 -44 88 -108 121 -119 19 -6 21
-14 21 -96 l0 -89 -63 0 c-70 0 -90 -12 -102 -62 -6 -22 -1 -33 24 -58 l31
-31 191 3 191 3 25 29 c18 22 23 35 18 55 -12 49 -33 61 -102 61 l-63 0 0 89
0 89 30 12 c34 14 105 87 115 119 6 20 13 21 110 21 l104 0 6 -37 c16 -101 38
-185 68 -258 59 -147 177 -299 306 -397 l64 -48 -282 0 -282 0 -24 -25 c-32
-31 -32 -69 0 -100 l24 -25 996 0 996 0 24 25 c30 29 32 64 6 96 -19 23 -24
24 -220 29 l-202 5 61 44 c34 25 86 71 116 104 250 270 328 646 204 989 -60
166 -191 348 -250 348 -64 0 -96 -65 -58 -117 173 -238 212 -340 212 -558 1
-181 -33 -300 -126 -442 -227 -349 -669 -468 -1043 -282 -235 117 -392 335
-439 612 l-7 37 289 0 290 0 12 -30 c19 -46 102 -115 155 -130 88 -25 185 7
248 80 123 144 32 368 -158 389 l-56 6 -219 204 c-121 112 -220 207 -220 210
0 15 131 82 220 112 165 55 391 51 536 -11 65 -28 108 -26 133 6 43 55 14 99
-88 137 -177 66 -418 75 -594 23 -97 -29 -208 -81 -278 -131 l-46 -33 -161
150 -161 150 28 76 27 77 150 5 c135 5 154 7 199 31 65 33 110 93 125 165 23
111 -8 187 -85 204 -54 13 -561 12 -606 0 -19 -6 -46 -22 -60 -36 -23 -24 -24
-32 -24 -160 0 -131 0 -134 27 -160 14 -15 46 -32 70 -38 l45 -11 -84 -235
c-46 -129 -86 -236 -88 -238 -3 -4 -968 857 -973 868 -1 4 13 49 31 101 l34
94 65 3 66 3 7 -37 c8 -47 29 -78 61 -92 17 -8 112 -12 292 -12 231 0 271 2
291 16 38 27 51 74 51 187 0 92 -3 108 -23 138 -13 19 -38 39 -57 46 -42 14
-488 16 -537 2z m465 -191 l3 -48 -200 0 -201 0 0 43 c0 24 3 47 7 51 4 3 93
5 197 4 l191 -3 3 -47z m-2301 -593 l101 -235 -199 0 -199 0 0 235 0 235 98 0
99 0 100 -235z m3187 196 c3 -5 1 -23 -5 -40 -19 -55 -45 -61 -274 -61 l-205
0 0 55 0 55 239 0 c132 0 242 -4 245 -9z m-1223 -432 c250 -223 467 -417 482
-430 l28 -24 -58 -165 -59 -165 -45 -6 c-24 -4 -52 -8 -62 -10 -14 -3 -50 48
-166 238 -81 133 -178 284 -216 335 -85 113 -240 271 -357 362 -49 37 -88 69
-88 70 0 4 57 169 65 189 4 10 11 17 15 15 4 -2 212 -186 461 -409z m838 -181
c25 -23 84 -77 130 -120 l84 -78 -37 -40 c-109 -121 -191 -308 -221 -502 l-6
-38 -104 0 c-65 0 -105 4 -105 10 0 6 -12 28 -26 50 l-27 40 128 360 c70 198
130 360 133 360 3 0 26 -19 51 -42z m-2419 -653 l0 -685 -95 0 c-88 0 -98 -2
-120 -25 -30 -29 -32 -64 -6 -96 l19 -24 819 -5 818 -5 3 -87 3 -88 -1061 0
-1060 0 0 90 0 90 95 0 c88 0 98 2 120 25 14 13 25 36 25 50 0 14 -11 37 -25
50 -22 23 -32 25 -120 25 l-95 0 0 685 0 685 340 0 340 0 0 -685z m696 589
c19 -9 17 -18 -70 -266 -50 -142 -95 -257 -99 -255 -5 1 -91 79 -192 172
l-184 170 -1 57 0 56 68 26 c114 45 184 56 327 52 72 -2 139 -7 151 -12z m243
-101 c280 -166 435 -508 377 -833 -17 -93 -61 -207 -109 -282 l-37 -58 -220 0
-220 0 0 249 c0 265 -4 292 -50 351 l-27 36 101 287 c55 158 106 287 111 287
6 0 39 -17 74 -37z m2211 -518 c0 -1 -12 -23 -26 -49 l-26 -46 -289 0 -288 0
5 33 c25 142 100 313 174 399 l42 48 204 -191 c112 -105 204 -193 204 -194z
m-2750 5 c85 -79 161 -150 168 -159 9 -11 12 -78 12 -258 l0 -243 -50 0 -50 0
0 220 0 219 -29 33 c-16 18 -90 89 -165 158 l-136 125 0 70 0 69 48 -45 c26
-25 117 -110 202 -189z m1574 -91 c31 -15 60 -72 50 -102 -13 -43 -45 -67 -89
-67 -70 0 -109 61 -80 123 24 51 69 68 119 46z m1407 -12 c23 -17 39 -52 39
-82 0 -38 -50 -85 -90 -85 -76 0 -119 102 -65 155 27 28 88 34 116 12z m-3051
-364 l0 -193 -90 0 -90 0 0 276 0 275 90 -83 90 -83 0 -192z"/>
<path d="M346 2589 c-19 -15 -26 -30 -26 -55 0 -52 28 -74 95 -74 30 0 55 -3
55 -6 0 -3 -25 -62 -55 -131 -30 -69 -55 -139 -55 -154 0 -59 73 -91 118 -51
26 23 182 382 182 420 0 21 -8 37 -26 51 -24 19 -40 21 -144 21 -104 0 -120
-2 -144 -21z"/>
<path d="M22 997 c-36 -38 -28 -88 19 -112 43 -23 4995 -23 5038 0 46 23 54
66 20 109 l-20 26 -2518 0 -2518 0 -21 -23z"/>
</g>
</svg>
